<?xml version="1.0" encoding="UTF-8" standalone="no"?><!DOCTYPE svg PUBLIC "-//W3C//DTD SVG 1.1//EN" "http://www.w3.org/Graphics/SVG/1.1/DTD/svg11.dtd"><svg width="100%" height="100%" viewBox="0 0 203 177" version="1.1" xmlns="http://www.w3.org/2000/svg" xmlns:xlink="http://www.w3.org/1999/xlink" xml:space="preserve" xmlns:serif="http://www.serif.com/" style="fill-rule:evenodd;clip-rule:evenodd;stroke-linecap:round;stroke-linejoin:round;stroke-miterlimit:1.5;"><g><path d="M167.833,158.855c0,9.129 -7.401,16.53 -16.53,16.53l-17.932,0" style="fill:#ebebeb;fill-opacity:0;stroke:#000;stroke-width:3px;"/><path d="M72.003,175.385l-24.029,0c-7.401,0 -13.402,-6.001 -13.402,-13.403c0,-17.516 0,-62.142 0,-72.158c0,-0.909 -0.361,-1.78 -1.003,-2.423c-0.643,-0.642 -1.514,-1.003 -2.423,-1.003c-5.581,0 -16.879,0 -25.522,0c-1.738,0 -3.289,-1.09 -3.879,-2.725c-0.59,-1.635 -0.091,-3.464 1.247,-4.574c20.084,-16.654 69.135,-57.326 89.601,-74.297c5.332,-4.422 13.062,-4.4 18.37,0.05c20.1,16.854 67.872,56.911 88.028,73.811c1.41,1.183 1.931,3.123 1.301,4.853c-0.629,1.73 -2.274,2.882 -4.115,2.882c-9.2,0 -21.114,0 -26.049,0c-0.608,0 -1.192,0.242 -1.623,0.672c-0.43,0.431 -0.672,1.015 -0.672,1.624c0,8.218 0,51.667 0,70.161" style="fill:#ebebeb;fill-opacity:0;stroke:#000;stroke-width:3px;"/></g></svg>